Coordinates
version=1
nRows=19
nColumns=36
inDegrees=yes

Units are S.I. units (second, meters, Newtons, ...)
If the header above contains a line with 'inDegrees', this indicates whether rotational values are in degrees (yes) or radians (no).

endheader
time	pelvis_tilt	pelvis_list	pelvis_rotation	pelvis_tx	pelvis_ty	pelvis_tz	hip_flexion_r	hip_adduction_r	hip_rotation_r	knee_angle_r	knee_angle_r_beta	ankle_angle_r	subtalar_angle_r	mtp_angle_r	hip_flexion_l	hip_adduction_l	hip_rotation_l	knee_angle_l	knee_angle_l_beta	ankle_angle_l	subtalar_angle_l	mtp_angle_l	lumbar_extension	lumbar_bending	lumbar_rotation	arm_flex_r	arm_add_r	arm_rot_r	elbow_flex_r	pro_sup_r	arm_flex_l	arm_add_l	arm_rot_l	elbow_flex_l	pro_sup_l
      1.21250000	    -46.81770703	      1.22308662	      2.61174477	     -0.95807772	      1.05035637	     -0.09550974	     84.70013538	      0.41001368	      8.12227764	     69.45149343	      1.21215723	     30.64185535	    -13.37800484	     -7.49999987	     84.81661620	      6.19927158	      5.47546219	     70.64501443	      1.23298810	     23.27937287	    -22.05435922	     -7.49999987	     -9.50008987	      4.45318644	     -6.71017120	    -30.25883019	     -3.54372267	    -74.92667739	     36.72700632	     81.99937218	    -37.81710974	     -0.29609805	    -61.01650784	     26.14903062	     59.99808611
      1.21666670	    -46.98121349	      1.30475969	      2.47916182	     -0.95762785	      1.04777475	     -0.09632926	     84.90243247	      0.36774282	      8.19636459	     69.52870031	      1.21350475	     30.95757550	    -13.04831331	     -7.49999987	     85.03592813	      6.19284213	      5.45196645	     70.79708273	      1.23564219	     23.30219354	    -22.23468954	     -7.49999987	     -9.39608905	      4.37323912	     -6.62169002	    -30.51025341	     -3.48071390	    -75.34656020	     37.06510823	     80.41753733	    -38.20702267	      0.03734347	    -61.21803485	     26.72314735	     59.90190761
      1.22083330	    -47.08126384	      1.35819485	      2.43775527	     -0.95484376	      1.04653226	     -0.09571374	     84.93460822	      0.30736611	      8.18399923	     69.74467302	      1.21727418	     31.12963774	    -12.87705403	     -7.49999987	     85.11723179	      6.26836478	      5.55726686	     71.01719380	      1.23948386	     23.76311361	    -21.53907412	     -7.49999987	     -9.30093988	      4.33239479	     -6.52847459	    -30.71145198	     -3.57853439	    -75.76732451	     36.62094684	     80.60455821	    -38.26832016	     -0.01960901	    -61.32721758	     26.23036530	     59.85880525
      1.22500000	    -47.32548593	      1.46156277	      2.42074188	     -0.95733316	      1.04505105	     -0.09697530	     85.37199833	      0.22799408	      8.28299611	     69.96550077	      1.22112835	     31.43687881	    -12.65680575	     -7.49999987	     85.59410615	      6.36032548	      5.43181217	     71.42132262	      1.24653724	     23.83896958	    -21.89670964	     -7.49999987	     -9.13406694	      4.22328240	     -6.47357339	    -31.02916370	     -3.54024707	    -75.82099746	     36.91294342	     79.85960761	    -38.52805851	      0.10062368	    -61.18347419	     26.68982556	     59.83443032
      1.22916670	    -47.55900494	      1.50059077	      2.41136981	     -0.95622736	      1.04401268	     -0.09577441	     85.70034418	      0.27867501	      8.36382596	     70.28949865	      1.22678318	     31.62789564	    -12.63133317	     -7.49999987	     85.86701785	      6.33405471	      5.39181633	     71.63322724	      1.25023567	     23.79534474	    -22.26378577	     -7.49999987	     -8.92980323	      4.20543644	     -6.50010546	    -31.14508763	     -3.54931258	    -75.76713291	     37.06385882	     78.95975491	    -38.61141210	      0.16053206	    -61.13180514	     26.90045110	     59.78783869
      1.23333330	    -47.79137830	      1.50868217	      2.37744469	     -0.95659896	      1.04464262	     -0.09531315	     85.91694666	      0.34011761	      8.39180070	     70.28570627	      1.22671699	     31.54225725	    -12.77954067	     -7.49999987	     86.11780152	      6.26033592	      5.32240080	     71.75617422	      1.25238150	     23.91050567	    -22.17171240	     -7.49999987	     -8.89151877	      4.17696184	     -6.54082047	    -30.99227319	     -3.52214607	    -75.81858125	     36.76892547	     79.07252012	    -38.41442577	      0.11990406	    -61.41379107	     26.54763131	     59.73445537
      1.23750000	    -47.78891285	      1.64924231	      2.27206493	     -0.95697250	      1.04522264	     -0.09632409	     86.02449566	      0.33356555	      8.42447007	     70.36451662	      1.22809249	     31.25883443	    -13.07878971	     -7.49999987	     85.95965167	      6.30130555	      5.21731719	     71.60576360	      1.24975634	     23.83008628	    -22.41196622	     -7.49999987	     -9.24882600	      4.13351254	     -6.55214582	    -30.72418791	     -3.52236792	    -75.71264838	     37.00128316	     79.29769437	    -37.88464677	     -0.01411347	    -61.54813884	     25.72077067	     59.68788390
      1.24166670	    -47.94056327	      1.70242915	      2.31606493	     -0.95382935	      1.04576077	     -0.09531977	     86.02399195	      0.27151279	      8.34124327	     70.35283446	      1.22788860	     30.71222130	    -13.87121495	     -7.49999987	     85.78506033	      6.35204488	      5.29542367	     71.23590364	      1.24330106	     23.73295342	    -22.22970974	     -7.49999987	     -9.14267064	      4.13968089	     -6.75800329	    -30.46981114	     -3.42835713	    -75.69065269	     37.14904953	     78.74501630	    -37.57685916	      0.12525433	    -61.47409624	     25.79908049	     59.66555597
      1.24583330	    -48.06912017	      1.67142341	      2.39263697	     -0.95656768	      1.04524989	     -0.09505277	     86.18370367	      0.29571188	      8.30424000	     70.27031651	      1.22644839	     30.56961533	    -14.12337483	     -7.49999987	     86.01132839	      6.27431733	      5.16605601	     71.36714737	      1.24559170	     23.84695852	    -22.22437561	     -7.49999987	     -9.46360929	      4.14521702	     -7.00685335	    -29.93588038	     -3.43820646	    -75.43752625	     37.10564869	     78.55534764	    -37.03964288	      0.09877100	    -61.46025975	     25.48946285	     59.62737706
      1.25000000	    -48.02776703	      1.69735709	      2.29354079	     -0.95611456	      1.04701236	     -0.09617474	     86.01240721	      0.38762260	      8.39992191	     70.01964215	      1.22207330	     30.37243146	    -14.22900891	     -7.49999987	     85.82996381	      6.29385753	      5.28632987	     70.99139132	      1.23903352	     23.66946885	    -22.12045887	     -7.49999987	     -9.85550699	      4.15686926	     -6.84839180	    -29.58523768	     -3.60028041	    -74.58218036	     36.88506916	     79.57186133	    -36.03053785	     -0.25369052	    -60.98016647	     24.43065217	     59.64908121
      1.25416670	    -48.26539978	      1.63151573	      2.34299036	     -0.95465950	      1.04678130	     -0.09708381	     86.17699253	      0.30268129	      8.32685569	     69.87328860	      1.21951895	     30.36520726	    -14.28913041	     -7.49999987	     85.99248321	      6.34582824	      5.32681565	     70.90185249	      1.23747077	     23.79038225	    -21.93150772	     -7.49999987	     -9.86483028	      4.22750268	     -6.79577306	    -29.09211276	     -3.53560242	    -74.36715028	     36.91569507	     79.13658381	    -35.35993595	     -0.20337290	    -60.70689783	     24.57905920	     59.64148754
      1.25833330	    -48.20718763	      1.59037347	      2.40308392	     -0.95256592	      1.04752502	     -0.09677258	     85.86810102	      0.27107935	      8.31931365	     69.63483752	      1.21535719	     30.33646635	    -14.36081184	     -7.49999987	     85.74829585	      6.42462600	      5.32926183	     70.74695709	      1.23476734	     23.79053664	    -21.92285026	     -7.49999987	    -10.28443346	      4.30078942	     -6.57488506	    -28.49676777	     -3.48636225	    -73.88164654	     36.36846647	     79.22930380	    -34.31045252	     -0.65063871	    -60.12067041	     23.42410260	     59.59061191
      1.26250000	    -48.29872908	      1.47185962	      2.50015452	     -0.95068581	      1.04665021	     -0.09683159	     85.66603480	      0.24969339	      8.20646271	     69.39933748	      1.21124694	     30.76939345	    -14.23606479	     -7.49999987	     85.68756571	      6.49597226	      5.34260007	     70.75267513	      1.23486714	     23.92400357	    -22.16019014	     -7.49999987	    -10.25281881	      4.35953949	     -6.46706914	    -27.97926828	     -3.27939713	    -73.89949573	     36.16572877	     79.02603094	    -33.60743643	     -0.67511803	    -59.70423418	     23.41793023	     59.58794273
      1.26666670	    -48.33333311	      1.44064317	      2.53784640	     -0.94681284	      1.04517627	     -0.09670101	     85.38546392	      0.24648217	      8.13200512	     69.34054387	      1.21022080	     31.26807349	    -14.12540992	     -7.49999987	     85.50659608	      6.54354558	      5.37624435	     70.82792735	      1.23618053	     24.38956732	    -21.87297872	     -7.49999987	    -10.10720159	      4.35862070	     -6.26369682	    -27.59039537	     -3.11901826	    -73.82774983	     35.92482667	     78.68126185	    -32.90436735	     -0.84426412	    -59.04104618	     23.22578385	     59.62494605
      1.27083330	    -47.71944401	      1.37064900	      2.52555609	     -0.94433380	      1.04604063	     -0.09536074	     84.49072534	      0.38843496	      8.01446113	     69.41852048	      1.21158174	     31.70271510	    -14.31570943	     -7.49999987	     84.63508465	      6.49655855	      5.42805758	     70.82726150	      1.23616891	     24.42922927	    -22.24687334	     -7.49999987	    -10.91514571	      4.26740458	     -6.06917161	    -27.03863868	     -2.36380522	    -73.41932496	     37.40786437	     77.48743422	    -32.21260336	     -0.75468374	    -58.70273442	     24.45800205	     59.65120257
      1.27500000	    -48.08448301	      1.42076696	      2.59917963	     -0.94444503	      1.04624102	     -0.09522264	     84.72317608	      0.37792333	      8.12806085	     69.47821471	      1.21262361	     32.00137088	    -14.36568485	     -7.49999987	     84.86121385	      6.49748276	      5.32924550	     70.80174302	      1.23572353	     25.20428485	    -21.10116918	     -7.49999987	    -10.39172569	      4.19640547	     -5.77586088	    -26.22507924	     -2.86058573	    -73.10461004	     34.90634295	     78.10570121	    -30.52290837	     -1.92978310	    -56.87626426	     21.15007668	     59.73201935
      1.27916670	    -48.34556362	      1.43923498	      2.64554868	     -0.94443040	      1.04716815	     -0.09567602	     84.87609343	      0.39427042	      8.23767657	     69.36185697	      1.21059278	     31.90081563	    -14.32581093	     -7.49999987	     84.94979415	      6.64866923	      5.51194337	     70.38874173	      1.22851530	     25.11456886	    -20.94566396	     -7.49999987	    -10.34983823	      4.29160784	     -5.64818022	    -25.46226088	     -2.71964101	    -72.41382431	     35.07589966	     79.64826886	    -29.43177946	     -2.51244887	    -51.94808818	     20.08320035	     59.23028362
      1.28333330	    -48.67366030	      1.56027164	      2.58945576	     -0.94249451	      1.04677822	     -0.09480903	     85.07050792	      0.51222826	      8.51012842	     69.23536236	      1.20838503	     31.93011509	    -14.35366437	     -7.49999987	     85.01992592	      6.66593553	      5.58986496	     70.10981283	      1.22364707	     24.98243316	    -21.17516296	     -7.49999987	    -10.14298569	      4.24351701	     -5.72784160	    -24.51297278	     -2.69402589	    -72.19521580	     34.98480196	     79.13881183	    -28.29622520	     -2.36205303	    -51.69865573	     19.94205111	     59.00628500
      1.28750000	    -48.88223799	      1.64360671	      2.65532034	     -0.94087089	      1.04800439	     -0.09407554	     85.09324060	      0.55574688	      8.66501715	     69.05541465	      1.20524435	     31.80465847	    -14.47484274	     -7.49999987	     85.00547880	      6.69168334	      5.55395724	     69.85440043	      1.21918928	     24.78256628	    -21.32409993	     -7.49999987	    -10.18690039	      4.17992136	     -5.59631003	    -23.53869098	     -2.46932540	    -71.72368715	     34.81695696	     78.66195204	    -26.84829772	     -2.61046921	    -51.20411713	     19.36520367	     58.83958098
